<?xml version="1.0" encoding="UTF-8" standalone="no"?>
<svg
   xmlns:dc="http://purl.org/dc/elements/1.1/"
   xmlns:cc="http://creativecommons.org/ns#"
   xmlns:rdf="http://www.w3.org/1999/02/22-rdf-syntax-ns#"
   xmlns:svg="http://www.w3.org/2000/svg"
   xmlns="http://www.w3.org/2000/svg"
   version="1.1"
   id="svg3352"
   viewBox="0 0 480.80838 470.01588"
   height="132.64893mm"
   width="135.69481mm">
  <defs
     id="defs3354" />
  <metadata
     id="metadata3357">
    <rdf:RDF>
      <cc:Work
         rdf:about="">
        <dc:format>image/svg+xml</dc:format>
        <dc:type
           rdf:resource="http://purl.org/dc/dcmitype/StillImage" />
        <dc:title></dc:title>
      </cc:Work>
    </rdf:RDF>
  </metadata>
  <g
     transform="translate(-133.88153,-225.9257)"
     id="layer1">
    <path
       d="m 178.68424,397.75907 33.01831,-5.0156 4.32588,29.9169 -28.71104,4.35997 -8.63315,-29.25662 0,-0.005 z m 33.70184,122.49931 -7.11422,-27.78263 20.41423,-3.10142 4.22978,29.19617 -17.52979,1.68788 z m 277.6031,-163.7354 -6.19975,25.47943 -30.70891,4.66221 -3.6811,-25.42053 40.58976,-4.72111 z m -260.12291,64.03412 -4.29178,-29.6534 42.54424,-5.65108 4.17398,28.86294 -42.42644,6.44154 z m 57.1586,95.29791 -43.06192,2.06916 -4.43902,-30.64846 42.42799,-6.44619 5.07295,35.02549 z m 56.18213,-2.5791 -42.13815,1.92967 -5.27909,-36.47467 41.50268,-6.29895 5.91456,40.84395 z m 57.109,-2.72324 -43.98413,2.21641 -6.1238,-42.30089 43.3502,-6.58104 6.75773,46.66552 z m 48.57969,-2.13891 -35.45947,1.63518 -6.96232,-48.12556 41.50423,-6.29894 5.22019,36.06549 -4.30263,16.72383 z m 6.0959,-108.58087 25.09349,-3.81285 -11.11305,42.06065 -8.27667,1.25545 -5.70377,-39.50325 z m -14.76315,2.24121 5.71772,39.50325 -41.50888,6.3036 -5.71772,-39.50171 41.50888,-6.30514 z m -47.2452,-33.34381 41.62048,-5.50848 3.7152,25.68402 -41.50423,6.30359 -3.83145,-26.47913 z m -56.42237,7.48465 43.468,-5.79057 3.87019,26.74417 -43.34865,6.58104 -3.98954,-27.53464 z m -50.43032,35.80046 -4.13988,-28.5979 41.62047,-5.50848 4.02519,27.80433 -41.50578,6.30205 z m 56.32473,4.90245 43.35485,-6.58104 5.71772,39.50171 -43.35485,6.58258 -5.71772,-39.50325 z m -7.19326,41.46548 -41.50887,6.30359 -5.71772,-39.50636 41.50887,-6.29894 5.71772,39.50171 z m 127.95974,-1.69874 -0.86796,-5.93781 2.66589,-0.39988 -1.79793,6.33769 z m -231.45062,-22.95922 42.43264,-6.43999 5.71617,39.50171 -42.43264,6.43999 -5.71617,-39.50171 z m -40.88425,6.20595 27.05106,-4.10733 5.71772,39.5079 -22.07576,3.35097 -10.69302,-38.75154 z m 47.54434,226.66673 c -1.46934,-10.18649 6.0308,-19.79006 16.72847,-21.41626 10.69767,-1.62139 20.60022,5.34124 22.07421,15.52232 1.47554,10.17999 -6.02926,19.78526 -16.72847,21.41156 -10.69767,1.625 -20.60022,-5.34243 -22.07421,-15.51762 z m 232.77271,-35.34756 c -1.47244,-10.17999 6.02926,-19.78526 16.72383,-21.41161 10.69456,-1.62139 20.59866,5.33767 22.0866,15.52247 1.45695,10.17627 -6.04475,19.78526 -16.73932,21.41145 -10.69457,1.62139 -20.59867,-5.34124 -22.07111,-15.52231 z M 134.00109,386.61037 c 1.1299,9.16013 9.80955,15.32733 19.42846,14.05328 l 1.18881,-0.27279 36.9908,134.25249 c 1.4461,5.24499 6.50044,8.73529 12.20731,8.47134 l 251.40761,-11.12173 52.75988,45.50198 -297.21447,45.12798 c -6.71433,1.02017 -11.43079,6.86514 -10.50857,13.26095 0.92841,6.39288 7.10026,10.58623 13.81459,9.56668 l 19.95699,-3.03261 c -7.38855,4.71088 -10.91931,16.46499 -9.43912,26.66978 2.52795,17.47009 19.49667,29.23266 37.85568,26.4452 18.36056,-2.78747 31.28084,-18.98861 28.74979,-36.46524 -1.47244,-10.19998 -8.19297,-20.49746 -16.60138,-22.80717 l 192.20465,-29.18548 c -7.3932,4.71289 -10.92706,16.46034 -9.43912,26.66497 2.5264,17.47678 19.49821,29.23942 37.84947,26.45185 18.36676,-2.78926 31.29324,-18.9903 28.76684,-36.46522 -1.48794,-10.20541 -8.19917,-20.49917 -16.61533,-22.8126 l 29.8053,-4.52256 c 4.72731,-0.71747 8.57115,-4.34541 9.9971,-8.71003 1.41044,-4.36153 0.0465,-9.2536 -3.45636,-12.25117 l -70.24317,-60.02939 63.70243,-242.76982 69.20471,-23.95428 c 6.41674,-2.21796 9.8421,-8.95554 7.65669,-15.03594 -2.18541,-6.08351 -9.14463,-9.22368 -15.57687,-7.00107 l -75.52846,26.1087 c -3.93684,1.36239 -6.91272,4.51651 -7.93568,8.38826 l -15.73186,59.94073 c -0.52698,0.0202 -0.97646,0.43553 -1.50344,0.50993 l -348.31745,46.58492 c -0.1178,0.0202 -0.23405,0.0403 -0.35184,0.0542 -9.43447,1.43214 -16.1953,9.34147 -15.08399,18.38381"
       style="fill:#000000;fill-opacity:1;fill-rule:nonzero;stroke:none"
       id="path22" />
  </g>
</svg>
