<?xml version="1.0" encoding="UTF-8" standalone="no"?>
<svg
   xmlns:dc="http://purl.org/dc/elements/1.1/"
   xmlns:cc="http://creativecommons.org/ns#"
   xmlns:rdf="http://www.w3.org/1999/02/22-rdf-syntax-ns#"
   xmlns:svg="http://www.w3.org/2000/svg"
   xmlns="http://www.w3.org/2000/svg"
   viewBox="0 0 1772.0125 1091.2625"
   height="1091.2625"
   width="1772.0125"
   xml:space="preserve"
   version="1.1"
   id="svg2"><metadata
     id="metadata8"><rdf:RDF><cc:Work
         rdf:about=""><dc:format>image/svg+xml</dc:format><dc:type
           rdf:resource="http://purl.org/dc/dcmitype/StillImage" /><dc:title></dc:title></cc:Work></rdf:RDF></metadata><defs
     id="defs6" /><g
     transform="matrix(1.25,0,0,-1.25,0,1091.2625)"
     id="g10"><g
       transform="scale(0.1,0.1)"
       id="g12"><path
         id="path14"
         style="fill:#ec1920;fill-opacity:1;fill-rule:evenodd;stroke:none"
         d="m 989.82,6595.97 c 0,0 -125.816,35.7 -207.093,47.45 C 608.574,6668.61 362.328,6588.96 232.891,6486.47 145.227,6417.06 90.2656,6331.56 52.5156,6226.45 39.9258,6191.4 5.74609,6016.78 3.32422,5975.15 -29.2148,5415.43 363.77,4827.46 870.055,4621.83 c 190.445,-77.35 315.375,-89.99 499.985,-86.67 40.8,0.73 176.95,22.17 193.4,30.45 137.34,69.13 141.55,137.63 235.66,142.89 54.66,3.06 139.37,-12.94 189.18,-4.68 79.67,13.21 249.42,126.65 301.34,175.69 189.07,178.54 226.81,418.74 252.99,681.39 5.62,56.39 5.62,210.82 0,228.35 -16.87,52.59 -90.14,102.33 -143.73,85.83 -25.44,-7.83 -72.2,-63.5 -113.94,-89.02 -110.64,-67.63 -267.1,5.96 -342.01,103.07 -106.54,138.12 -122.59,399.57 -7.03,538.78 54.03,65.09 159.98,121.37 248.31,140.55 75.41,16.38 209.61,40.58 222.54,49.2 42.57,28.37 1.23,81.91 -44.51,133.52 -92.79,104.72 -159.74,174.41 -292.81,236.59 -165.95,77.55 -358.63,79.62 -515.36,9.37 -41.99,-18.82 -143.85,-80.45 -201.46,-121.81 -25.59,-18.37 -122.28,-118.34 -138.2,-142.89 -23.89,-36.83 -50.31,-84.31 -50.31,-84.31 0,0 -2.87,147.27 10.48,264.21 14.7,128.75 46.36,243.54 42.17,279.33 -4.76,40.63 -43.4,67.44 -92.2,51.44 -45.31,-14.86 -202.402,-126.52 -231.07,-154.61 -29.488,-28.89 -34.792,-43.36 -28.109,-82.83 8.848,-52.26 80.16,-193.33 100.727,-277.92 14.445,-59.39 23.722,-131.78 23.722,-131.78" /><path
         id="path16"
         style="fill:#000000;fill-opacity:1;fill-rule:evenodd;stroke:none"
         d="m 11028.7,2200.5 c 0,0 -3,42.13 -7.9,65.38 -3.7,17.58 -19.1,50.14 -33.3,61.11 -27.6,21.35 -119.9,19.12 -158.6,8.53 -21.6,-5.92 -53.4,-17.41 -53.4,-17.41 0,0 16.6,-26.32 29.7,-40.86 16.3,-18.21 73.4,-43.55 99.8,-52.59 30.3,-10.34 63,-15.43 94.8,-21.9 10,-2.04 11.8,-2.26 17.1,-2.26 l 11.8,0 z M 7875.04,929.23 c 115.41,118.77 189.61,256.18 94.46,379.86 -102.85,133.62 -189.44,-59.24 -202.02,-148.37 -9.73,-69.04 -2.01,-141.45 55.29,-193.529 15.87,-14.421 33.41,-27.003 52.27,-37.961 z M 4671.82,7617.39 c -23.83,21.01 -53.84,38.27 -76.71,7.13 -21.13,-28.75 -33.24,-64.06 -39.97,-98.88 -14.71,-76.07 -17.41,-166.12 12.97,-239.24 11.86,-28.52 30.75,-64.91 63.94,-72.91 63.69,-15.35 88.66,59.81 97.66,108.3 14.67,79.14 15.05,180.6 -25.07,255.21 -8.19,16.53 -18.31,28.99 -32.82,40.39 z m -131.11,-13.45 c 38.62,60.6 96.92,71.22 149.7,43.93 13.99,-7.4 25.02,-15.19 36.66,-25.91 4.21,-4.12 7.98,-8.54 11.4,-13.35 9.28,-14.47 15.92,-27.45 22.23,-43.43 40.14,-99.79 39.82,-249.16 -22.83,-325.97 -22.66,-27.79 -54.67,-44.46 -87.33,-48.66 214.19,-156.51 514.23,-197.63 763.08,-73.61 257.31,128.24 405.58,396.02 408.21,682.6 2.49,270.77 -130.49,493.73 -323.49,672.64 -23.72,22.42 -44.59,40.46 -70.22,60.69 -565.35,438.01 -1193.99,-424.32 -1030.51,-986.91 23.1,-79.54 60.37,-151.37 108.23,-214.18 -19.04,91.09 -10.49,201.01 34.87,272.16 z m -625.59,96.44 c 3.58,-2.06 7.78,-5.21 11.66,-8.36 8.95,-6.93 15.4,-14.26 21.15,-24.01 42.46,-73.53 48.45,-207.84 -5.16,-273.56 -0.64,-0.77 -1.28,-1.54 -1.94,-2.3 254.38,98.99 292.45,739.16 66.05,885.52 -510,182.37 -644.94,-695.9 -236.45,-875.23 2.68,-1.18 5.35,-2.31 8,-3.39 -0.88,1.6 -1.72,3.24 -2.53,4.94 -34.99,73.28 -37.77,194.42 7.2,265.01 32.95,51.7 86.72,59.46 132.02,31.38 z m -51.83,-1282.75 c 2.66,19.71 5,39.26 -0.32,56.33 68.24,-218.85 137.07,-500.85 402.78,-544.94 229.53,-38.1 520.54,129.44 543.74,374.51 0.33,8.75 0.69,17.47 1.04,26.17 -0.19,-4.83 -0.26,-10.34 -0.26,-16.33 0.1,1.49 0.19,2.98 0.26,4.48 -0.11,-2.26 -0.19,-4.67 -0.25,-7.21 0.09,-20.21 0.94,-45.38 1.01,-68.51 0.18,-13.15 0.17,-26.02 -0.37,-37.42 4.22,-86.87 97.17,-214.87 188.12,-236.76 135.42,-32.55 242.64,57.75 319.17,159.93 4.63,8.71 9.23,17.44 13.74,26.23 -15.85,-30.88 16.23,-86.89 0,-118.47 -2.51,-4.88 -5.06,-9.75 -7.64,-14.61 -0.89,-3.4 -2.26,-6.46 -4.21,-9.08 -0.78,-1.06 -1.57,-2.11 -2.37,-3.16 -26,-47.97 -54.14,-95.34 -73.14,-146.42 -5.5,-14.76 -11.32,-29.7 -15.43,-45.01 7.95,-21.45 19.1,-42.91 36.8,-57.39 77.91,-63.71 187.13,-37.88 267.35,13.02 -18.11,159.32 -50.86,321.88 -132.68,458.24 -228.9,381.49 -746.07,345.44 -1129.4,313.79 -255.48,-21.11 -513.83,-46.63 -770.35,-29.01 -128.11,8.81 -287.2,24.67 -410,90.07 36.46,-221.14 133.31,-498.07 357.46,-570.44 107.17,-34.62 240.32,-48.62 317.73,52.79 62.79,82.21 86.36,184.77 93.72,286.88 -0.37,9.15 0.47,18.67 1.64,28.28 0.62,13.79 0.98,27.52 1.14,41.17 0.29,24.57 0.56,1.27 0.72,-27.13 z m 1365.87,-600.27 c -1.82,4.91 -3.47,9.81 -4.99,14.64 -4.24,-52.04 -3.53,-61.04 2.11,-26.97 0.81,4.14 1.78,8.25 2.88,12.33 z M 2548.8,4407.78 c 84.93,-69.22 159.14,-153.36 221.14,-238.9 135.35,-186.71 261.15,-439.2 494.25,-519.05 323.7,-110.91 672.73,-29.4 992.02,57.93 482.96,132.06 1062.75,372.54 1244.9,868.09 -74.66,99.67 -187.95,157.27 -321.25,88.31 -75.82,-39.24 -141.52,-100.11 -181.72,-176.21 -23.96,-45.32 -44.57,-93.44 -52.84,-144.43 -9.55,-58.86 -13.53,3.69 -19.43,22.29 -5.28,16.85 -10.71,33.65 -16.28,50.4 -64.28,187.15 -189.52,388.76 -422.23,317.11 -218.17,-67.22 -211.72,-307.7 -221.44,-496.99 -0.04,-0.69 -0.1,-1.42 -0.17,-2.11 -75.57,199.71 -313.79,380.11 -534.74,362.41 -228.82,-18.31 -388.75,-212.72 -462.16,-415.86 -10.57,-29.31 -21.04,-58.59 -29.5,-88.59 -9.25,-32.79 -3.33,-91.76 -26.89,-24.43 -18.71,53.5 -39.13,107.19 -68.41,156 -52.77,87.88 -122.92,175.99 -219.59,218.14 -135.25,59 -263.28,32.94 -375.66,-34.11 z m 1338.59,2972.11 c 23.44,12.52 34.11,51.77 38.58,75.83 11.92,64.27 11.3,148.8 -26.92,205.51 -2.11,2.97 -4.15,5.29 -6.82,7.77 -16.02,16.42 -40.41,39.81 -57.38,16.7 -15.78,-21.47 -24.74,-48.1 -29.78,-74.09 -11.07,-57.34 -13.03,-125.16 9.88,-180.24 7.73,-18.59 19.5,-42 39,-51.33 11.46,-0.99 22.6,-1.01 33.44,-0.15 z m 132.9,-5937.16 c -0.83,-123.52 31.96,-226.8 178.82,-230.31 82.87,-1.99 165.47,6.39 248.35,6.39 111.64,0 223.61,2.85 335.09,-3.36 184.81,-10.28 221.44,109.98 224.31,254.91 0.18,9.76 7.85,18.03 18.69,24.27 -317.04,-30.29 -678.9,-49.25 -1005.26,-51.9 z m 332.9,-282.85 c 1.22,-91.84 11.6,-238.161 137.11,-224.556 27.91,3.035 56.1,3.391 83.94,6.492 63.1,7.036 76.74,63.904 81.29,112.094 3.62,37.99 3.63,75.84 3.39,113.86 -24.16,1.18 -48.17,2.14 -71.86,2.14 -74.83,0 -154.45,-6.45 -233.87,-10.03 z m 8179.91,6869.86 c 0,-79.15 45.3,-156.11 118.4,-172.12 70.5,-15.47 164.4,5.54 211.7,43.87 75,60.79 92.2,152.22 20.9,213.06 -78.2,66.65 -232.6,99.63 -307.1,14.62 -13.6,-15.49 -43.9,-69.35 -43.9,-99.43 z m -4871.39,6.61 c 0,0 32.77,-150.85 56.59,-287.35 19.68,-112.71 98.6,-1080.67 114.9,-1159.32 23.98,-115.75 75.07,-293.54 204.7,-334.22 85.04,-26.68 194.36,-6.91 238.14,62.67 7.75,12.32 13.44,25.71 18.79,39.69 14.22,37.09 111.33,785.19 148.31,971.32 22.36,112.56 94.18,363.86 171.29,459.55 18.58,23.05 67.86,78.07 104.45,83.55 12.56,1.89 29.24,2.09 29.24,2.09 0,0 1.05,-389.56 8.35,-627.49 12.81,-417.2 104.56,-1010.93 524.31,-1177.29 132.45,-52.49 349.88,-71.05 465.81,31.34 43.06,38.02 62.48,100.98 2.85,119.06 -34.52,10.46 -95.82,4.26 -144.89,8.35 -115.53,9.64 -221.01,88.52 -261.1,183.83 -11.51,27.33 -59.04,231.87 -68.94,296.62 -29.28,191.5 -97.35,879.38 -204.71,1169.76 -39.8,107.65 -80.92,170.26 -179.64,227.69 -201.89,117.43 -361.94,-69.02 -467.91,-265.29 -39.05,-72.34 -72.89,-150.3 -108.62,-227.69 -20.35,-44.1 -173.1,-491.43 -175.46,-513.86 -2.85,-27.13 -87.56,-311.36 -94,-315.41 -7.01,-4.42 -14.62,-8.36 -14.62,-8.36 0,0 -14.51,505.59 -33.42,735.28 -14.48,175.79 -48.51,381.26 -110.72,543.1 -56.31,146.53 -124.56,229.44 -273.64,242.31 -350.23,30.24 -496.04,-534.96 -559.81,-823.01 -19.35,-87.4 -93.83,-543.6 -100.27,-614.13 -11.45,-125.55 -22.58,-431 91.91,-536.84 66.45,-61.42 199.11,-63.91 267.38,-8.35 10.57,8.61 17.02,17.35 22.98,27.16 5.72,9.41 67.11,840.73 77.28,1046.52 2.25,45.39 42.13,292.67 52.22,323.77 18.47,56.89 71.22,207.18 116.98,254.84 30.96,32.25 81.27,70.11 81.27,70.11 z M 13189.6,6590.67 c 0,0 -44.2,-44.99 -71.6,-67.83 -44.9,-37.48 -139.5,-44.64 -196.3,-8.36 -112.6,71.86 -125.8,464.12 -117,546.24 13.1,121.77 50.7,324.84 45.9,354.15 -16,99.19 -144.6,93.37 -263.1,31.24 -100.1,-52.43 -149.6,-270.22 -163,-380.17 -13.6,-111.75 -13.4,-490.98 69,-632.92 14,-24.23 37,-57.29 37,-57.29 0,0 -53.5,-17.98 -81.7,-22.09 -45.4,-6.62 -121.1,21.82 -151.7,54.31 -39.7,42.13 -70.6,152.32 -79.4,196.35 -36.6,184.63 -24.9,480.68 -87.7,622.49 -92.5,208.69 -280.6,255.21 -457.5,114.88 -27.4,-21.8 -47.9,-42.73 -75.2,-77.29 -77.2,-97.85 -208.9,-304.97 -208.9,-304.97 0,0 -5,255.13 -10.4,359.29 -1.4,26.82 -2.8,43.63 -10.4,77.28 -8.3,36.47 -23.9,92.72 -23.9,92.72 0,0 -83.7,-22.51 -137,-44.67 -56.9,-23.65 -114,-65.63 -133.7,-112.8 -7.3,-17.43 -25.7,-161.71 -25,-196.35 2,-111.47 -5.1,-377.74 -10.5,-389.95 -11.2,-25.56 -120.9,-172.61 -196.3,-197.03 -96.6,-31.25 -166.2,39.76 -194.3,127.42 -7.8,24.36 -13.3,48.9 -16.7,75.2 -13.2,101.91 -11.2,421.44 -20.9,447.02 -24.6,65.1 -56.7,84.08 -130.8,79.38 -35.3,-2.25 -119.1,-19.7 -130.3,-27.16 -14.2,-9.42 -20.3,-22.18 -27.2,-43.87 -9.1,-28.58 -18.8,-98.01 -18.8,-133.68 0.3,-175.01 27.8,-186.41 -60.5,-330.04 -38.1,-61.93 -121.8,-172.33 -199.8,-188 -42.19,-8.47 -64.06,15.7 -80.15,58.49 -72,191.44 -30.02,581.24 135.75,703.95 52.5,38.8 191.2,96.55 244.4,135.77 34.6,25.47 59,64.14 23,85.64 -108.4,64.7 -389.27,-34.81 -472.08,-83.55 -203.23,-119.61 -323.91,-319.75 -342.58,-557.56 -18.71,-238.37 104.03,-563.28 371.82,-585.05 118.44,-9.63 276.34,70.36 342.54,162.93 25,34.97 56.9,91.13 56.9,91.13 0,0 22,-55.26 41.3,-95.31 74.1,-153.32 203.2,-229.82 353,-190.08 98.2,26.05 187.3,75.85 252.8,152.49 33.3,39.01 73.7,96.19 73.7,96.19 0,0 13.2,-143.18 24.5,-160.95 28.4,-44.99 211.7,-48.51 259.8,-39.69 45.8,8.4 69.9,22.3 84.8,50.13 11.6,21.51 26.2,222.62 46,330.05 20.7,112.77 124.1,305.92 215.1,386.43 63.9,56.54 113.2,45.81 140,-27.15 13.6,-37.03 37.3,-322.46 64.7,-474.17 44.8,-247.01 170.3,-428.31 421.8,-449.11 96.4,-7.96 200.2,25.77 280.1,94 26.8,22.89 59.2,54.38 59.2,54.38 0,0 41.3,-18.49 70.3,-29.31 132.7,-49.58 337.3,-10.43 442.8,91.91 41.4,40.1 104.5,118.06 104.5,118.06 0,0 26.6,-35.85 48,-61.66 139.1,-167.08 384.1,-209.01 574.5,-123.25 105.1,47.35 252.3,175.57 290.3,298.71 9.2,29.79 10.8,65.24 -17.9,71.02 -38.7,7.77 -170.2,-98.93 -176.3,-102.35 -69.2,-38.49 -154.6,-56.22 -225.6,-41.78 -142.4,28.96 -194.1,115.22 -219.4,269.47 -22.5,137.39 -3.9,390 96.1,509.68 36.7,43.9 105.3,72.32 163.5,79.37 34.9,4.22 100.6,-1.05 150.9,-3.45 13.5,-0.65 15.6,-0.27 20.7,3.79 24.7,19.69 5.1,47.19 -17.6,74.86 -94.2,115.14 -297.2,148.25 -428.2,98.18 -207,-79.1 -351.8,-302.94 -386.4,-503.42 -19.6,-113.23 -15.1,-237.5 25,-355.1 14.9,-43.72 36.1,-97.19 36.1,-97.19 z m -240,-4225.31 c 247,69.75 383.2,264.34 445.1,524.73 l 0,0 c 35.4,316.23 70.2,649.11 82.6,793.14 13.8,160.48 27.6,392.34 29.3,508.43 4,281.49 -12.7,801.07 -12.7,801.07 0,0 135,30.52 217.4,59.54 55.8,19.66 130.5,51.75 121.1,112.39 -5.1,32.95 -27.4,38.52 -71,50.55 -21.5,5.94 -37.9,8.79 -63.9,10.44 -71.5,4.53 -216,0 -216,0 0,0 -11.8,380.11 -23,430.31 -13.4,60.29 -117.9,170.9 -231.8,188 -40.8,6.11 -79.2,-5.73 -92,-39.69 -5.5,-14.87 -10.5,-35.74 -13.9,-54.05 -2.5,-13.32 -2.8,-16.31 -2.8,-29.84 l 0,-525.4 c 0,0 -96.9,-25.19 -162.9,-48.71 -29.1,-10.36 -104.9,-52.31 -117,-64.75 -26.8,-27.5 -35.7,-63.76 -2.1,-106.53 25.1,-31.92 80,-45.15 125.8,-45.96 62.4,-1.1 172.9,12.54 172.9,12.54 0,0 8,-1060.12 11.6,-1438.19 1.1,-120.34 8.7,-214.38 4.4,-317.5 -2.3,-55.4 -9,-224.26 -23.3,-363.55 l -8.4,-82.22 c -8.6,-84.46 -38.8,-152.4 -115,-189.75 -172,-84.26 -242.4,-108 -321.6,-125.09 -461.5,-108.38 -868.1,-173.74 -1347.7,-217.27 -26.2,-4.25 -50.3,-7.14 -68.5,-7.5 -17.5,-0.36 -38.1,0 -38.1,0 0,0 0.6,23.82 0,43.2 -3,85.95 -50.9,169.93 -136.7,199.83 -122.9,42.82 -359.8,-5.49 -440.3,-92.38 -68.4,-73.99 -8.1,-133.6 87.5,-184.76 22.6,-12.15 110.5,-44.9 133.5,-49.75 66.5,-14.07 165.2,-24.16 165.2,-24.16 0,0 0.4,-13.38 0,-25.01 -2.5,-77.23 -86.1,-222.97 -128.7,-276.29 -76.9,-96.22 -313.1,-255.76 -325.2,-262.92 -12.2,-7.15 -24.5,-14.22 -36.9,-21.19 -486.6,-273.02 -1071.25,-467.87 -1631.23,-578.734 -184.5,-36.535 -372.82,-59.898 -561.62,-67.383 -99.74,-3.965 -222.72,-5.676 -331.9,18.82 129.07,129.347 224.96,288.427 148.4,460.047 -86.72,194.38 -351.13,143.1 -474.67,12.84 -110.16,-116.15 -140.68,-316.83 -34.89,-441.715 30.32,-35.785 69.96,-63.168 114.73,-84.242 C 7703.46,768.504 7630.93,719.168 7580,684.297 7279.42,478.473 6929.38,342.664 6568.71,244.359 6170.59,135.871 5722.97,63.0352 5310.41,146.508 c -111.91,22.644 -210.65,59.594 -295.87,108.801 -196.32,116.402 -322.5,285.265 -378.25,506.211 -7.63,37.648 -13.21,76.5 -16.74,116.421 -0.59,8.645 -1.18,17.27 -1.75,25.895 -0.35,5.141 -1.67,9.652 -3.78,13.57 24.88,8.184 47.02,21.633 63.29,43.91 40.27,55.104 36.3,136.334 34.66,204.114 98.25,-4.69 196.78,-5.3 283.07,46.8 94.38,57 108.87,183.86 110.82,282.66 0.05,2.69 -0.93,4.91 -2.72,6.7 414.32,42.63 738.04,104.75 780.15,174.57 112.64,186.79 218.23,355.83 280.32,481.63 145.71,234.03 194.68,543.87 248.44,805.39 71.86,349.61 110.9,705.86 138.52,1061.38 64.03,823.96 95.33,1642.37 16.56,2466.45 -21.71,227.03 -0.72,487.85 -101.08,698.72 -102.42,215.2 -362.78,236.39 -572.86,228.25 -22.33,-0.86 -47.42,-4.14 -72.32,-10.28 51.36,100.49 83.34,212.33 98.68,330.01 41.94,321.75 -132.47,603.41 -364.47,809.4 -578.92,529.18 -1269.05,-207.43 -1271.04,-818.36 -0.65,-203.07 79.36,-379.14 209.48,-510.9 -71.2,50.32 -138.45,106.63 -203.07,162.4 -10.86,9.34 -53.01,-8.11 -42.91,-16.82 132.68,-114.49 272.44,-222.61 434.88,-291.55 10.81,-4.59 21.71,-8.81 32.68,-12.71 60.6,-29.9 125.61,-53.23 193.67,-69.21 213.14,-50.07 461.31,-1.11 643.63,117.7 79.2,51.63 144.52,114.22 197.26,185.13 10.8,-1.5 21.16,-1.94 28.68,-1.65 215.97,8.36 383.66,-51.98 448.42,-270.06 64.67,-217.76 52.56,-465.99 73.27,-690.6 67.85,-736.62 38.09,-1467.32 -11.78,-2203.9 -25.44,-375.51 -64.22,-750.19 -132.3,-1120.56 -31.74,-172.63 -72.41,-343.46 -120.08,-512.37 -15.48,-54.85 -31.13,-110.3 -49.45,-164.75 -1207.63,-516.44 -2512.18,-276.94 -2985.38,-160.58 -61.69,81.28 -112.31,171.92 -154.54,263.32 -148.59,321.61 -273.99,654.53 -389.66,989.15 -55.14,159.5 -106.93,320.19 -157.71,481.14 -47.33,149.97 -108.46,303.34 -120.81,461.25 -2.36,30 111.45,-50.98 179.55,-114.43 175.98,-163.96 276.92,-388.03 442.99,-560.21 190.59,-197.55 494.23,-226.43 753.81,-219.4 309.94,8.39 634.35,96.84 928,192.58 278.59,90.84 546.74,210.9 794.34,367.82 238.37,151.04 428.52,347.34 516.65,619.41 90.29,278.87 59.44,587.42 46.62,874.82 -17.12,382.95 -47.74,844.78 -432.82,1042.02 -411.8,210.93 -917.24,107.17 -1356.8,80.35 -247.89,-15.13 -680.98,-64.43 -837.06,183.33 -86.35,137.08 -109.53,334.03 -81.29,490.64 6.85,37.97 23.05,73.72 39.84,108.15 3.98,7.49 8.47,14.6 13.46,21.33 l 5.4,7.27 8.28,0.17 c 70.33,1.45 142.17,-7.22 212.11,-7.92 43.13,-0.44 99.19,12.5 142.23,37.05 36.43,-46.91 81.35,-86.16 134.41,-113.8 196.85,-102.56 424.2,28.82 505.94,213.43 83.48,188.49 103.39,581.07 -86.41,715.86 -16.23,9.11 -31.12,14.76 -49.32,18.72 -188.73,51.06 -397.23,-2.79 -519.43,-162.08 -119.52,-155.77 -128.88,-398.91 -40.75,-581.87 -200,4.44 -443.8,29.44 -575.52,-153.81 -136.07,-189.3 -85.46,-506 31.09,-691.02 32.58,-51.73 77.7,-90.59 129.95,-120 -1.04,-18.35 -1.85,-36.7 0.27,-54.7 31.98,-271.62 141.91,-585.65 435.59,-659.1 284.36,-71.11 344.86,247.84 348.44,456.64 75.09,-240.36 144.79,-501.06 429.82,-548.26 221.64,-36.69 488.4,149.97 517.71,372.91 3.94,-89.91 21.66,-177.55 78.15,-252.53 96.47,-127.99 233.41,-92.83 338.25,-12.28 -11.23,-50.96 -7.91,-112.48 -4.47,-163.11 12.35,-181.81 208.36,-165.76 325.24,-89.14 0.63,-7.48 1.25,-14.93 1.85,-22.37 23.89,-293.39 47.74,-603.82 -0.52,-895.31 -4.92,-29.75 -11.16,-58.7 -18.62,-86.89 -68.42,116.44 -179.42,187.28 -328.06,133.78 -80.08,-28.82 -142.85,-94.75 -189.11,-163.49 -23.66,-35.2 -39.47,-74.87 -52.99,-114.77 -8.52,-25.06 -12.8,-51.32 -17.02,-77.36 2.73,16.9 -17.93,57.29 -23.16,73.71 -63.43,199.24 -164.89,377.72 -401.49,348.74 -214.67,-26.29 -239.62,-256.29 -248.53,-428.7 -3.78,-72.74 -10.57,-51.61 -40.37,1.75 -30.4,54.52 -76.47,99.54 -122.95,140.22 -88.25,77.29 -201.2,125.48 -316.69,141.68 -243.54,34.17 -426.22,-186.3 -511.43,-384.77 -20.45,-47.6 -35.35,-97.5 -49.41,-147.28 -18.68,-66.08 -21.56,13.84 -30.4,39 -11.3,32.24 -26.2,63.02 -41.2,93.66 -47.38,96.67 -120.26,179.14 -212.48,234.75 -166.78,100.61 -344.5,30.49 -482.03,-80.85 -43.72,27.98 -89.78,51.61 -138.02,69.41 -137.26,50.68 -377.88,6.91 -420.77,-153.16 -26.09,-97.38 9.49,-211.5 36.68,-304.07 52.61,-179.24 110.81,-357.13 169.09,-534.62 109.33,-332.89 230.7,-661.61 367.43,-984.28 65.92,-155.58 133.5,-311.84 229.36,-448.18 65.27,-117.96 176.16,-294.87 353.36,-554.85 55.55,-81.52 425.29,-115.24 879.89,-115.36 -6.9,-5.46 -11.35,-12.03 -11.45,-19.43 -2.01,-147.35 43.84,-233.59 194.1,-256.29 59.21,-8.94 121.7,-10.21 184.95,-8.51 1.51,-105.22 16.7,-245.117 142.07,-254.129 -0.31,-13.77 -0.64,-27.563 1.73,-41.133 0.16,-0.902 0.44,-1.723 0.84,-2.465 9.13,-133.281 39.92,-256.301 92.48,-365.015 99.09,-183.727 267.53,-326.61 505.92,-409.1567 378.92,-131.2149 821.9,-88.49614 1209.77,-17.2266 398.9,73.3043 796.1,201.9143 1149.9,383.0003 169.8,86.883 325.82,193.383 472.01,309.363 8.47,6.719 16.99,13.574 25.53,20.562 68.74,-14.929 139.64,-21.953 202.33,-26.296 202.3,-14.051 408.4,6.632 607.93,35.703 512,74.562 1011.65,240.773 1481.89,432.523 137.2,55.95 288.8,122.29 432.5,202.05 6.8,4.01 19.3,11.24 37.2,21.61 189.6,109.5 366.2,244.33 458,400.46 23,39.15 87.3,161.64 89,221.65 0.3,9.95 0,20.93 0,20.93 0,0 68.4,7.32 144,18.07 343.3,27.2 836,45.44 1583.9,256.68 z m -2166.8,2127.43 c 0,0 -76.9,34.9 -121.3,58.16 -26.5,13.86 -41.4,23.59 -58.5,37.6 -142.7,117.01 -177,204.16 -325.9,177.55 -55.4,-9.9 -139.8,-47.49 -169.1,-96.09 -15.5,-25.6 -37.3,-76.71 -37.3,-76.71 0,0 93.6,-44.97 137.5,-73.69 88.1,-57.55 94.5,-227.3 85.7,-326.02 -10.6,-118.49 -72.4,-417.59 -238.2,-388.37 -136.13,23.99 -230.41,170.23 -261.06,300.8 -10.85,46.24 -14.78,98.01 -20.31,147.27 -1.51,13.45 -0.86,16.21 6.53,27.55 223.84,343.86 362.04,529.12 454.54,888.41 64.7,251.46 112.7,701.83 -221.4,703.95 -149.4,0.95 -291.07,-101.45 -365.58,-213.06 -16.9,-25.32 -104.71,-220.29 -123.24,-273.65 -116.85,-336.41 -144.76,-586.07 -133.69,-938.73 1.29,-41.28 35.66,-264.03 45.95,-297.87 10.76,-35.37 24.19,-74.99 24.19,-74.99 0,0 -43.77,-53.72 -74.32,-83.77 -63.95,-62.9 -139.28,-79.34 -209.48,-21.65 -46.58,38.27 -68.62,111.91 -76.69,174.14 -13.24,101.94 -11.23,421.44 -20.89,447.02 -24.6,65.09 -56.7,84.07 -130.77,79.37 -35.34,-2.24 -119.12,-19.69 -130.34,-27.15 -14.18,-9.42 -20.27,-22.18 -27.16,-43.87 -9.08,-28.59 -18.84,-98.02 -18.8,-133.69 0.23,-175 27.73,-186.41 -60.57,-330.04 -38.07,-61.92 -121.8,-172.32 -199.78,-187.99 -42.21,-8.49 -63.99,15.71 -80.13,58.48 -75.24,199.44 -27.48,584.23 135.78,701.86 62.09,44.75 187.29,95.94 244.39,137.87 16.98,12.47 49.72,49.7 39.69,72.44 -3.47,7.88 -14.15,13.13 -25.06,17.38 -136.12,52.99 -379.12,-31.31 -497.16,-108.62 -162.67,-106.55 -247.57,-246.98 -292.44,-436.57 -56.88,-240.37 23.11,-571.47 271.56,-666.35 139.37,-53.24 335.49,17.39 426.13,144.13 25.02,34.99 56.92,91.21 56.92,91.21 0,0 41.06,-95.25 70.49,-145.52 70.44,-120.3 200.03,-173.14 323.78,-139.95 98.85,26.5 187.47,75.68 252.75,152.48 35.9,42.23 79.79,105.79 79.79,105.79 0,0 42.41,-71.02 72.7,-112.06 97.63,-132.29 266.62,-200.53 420.28,-206.79 311.7,-12.7 536.2,194.84 565.7,510.93 5,54.19 3.8,127.4 -10.5,178.39 -12,42.88 -34.1,77.63 -27.1,83.56 4.3,3.66 51.1,-19.7 91.9,-37.6 24.3,-10.69 62.7,-19.42 91.7,-20.89 32.9,-1.67 76.8,0 76.8,0 0,0 26,-155.21 55,-259.02 8.6,-30.8 74.5,-174.63 91.9,-200.53 106.9,-159.25 225,-252.38 415.7,-277.82 170.9,-22.81 293.5,15.31 421.9,125.33 19.6,16.78 35.8,32.48 58.5,60.58 29.9,36.94 71.1,95.31 71.1,95.31 0,0 20.5,-28.98 37.5,-51.45 110.3,-145.21 306.7,-215.77 480.5,-190.08 229.9,33.97 379.2,196.56 459.5,413.59 15.2,40.99 42.8,152.4 -4.2,185.91 -13.4,9.6 -25.8,7.05 -37.6,0 -18.6,-11.22 -95,-134.89 -146.2,-200.53 -67.5,-86.54 -206.8,-162.72 -320.3,-139.95 -92.3,18.51 -147.1,129.34 -158,229.77 -5.4,49.5 -6.3,118.4 -6.3,118.4 0,0 65.1,5.55 108.6,13.2 138.3,24.28 272,120.71 351,219.33 121.2,151.42 189.7,369.02 60.5,526.4 -83.1,101.33 -196.8,107.78 -332.1,83.55 -278.6,-49.91 -447.8,-179.3 -543.1,-455.37 -38.9,-112.79 -73.3,-312.25 -50.1,-435.32 12.9,-68.48 36.6,-173.87 33.4,-184.41 -13.8,-45.69 -110.4,-122.06 -171.3,-146.88 -142.7,-58.2 -265.4,-26.84 -357.2,89.82 -61.3,77.88 -110.7,170.26 -126.6,263.61 -2.3,13.37 -1.6,16.04 6.7,26.76 155.7,201.97 226.1,285.92 330.9,505.49 84.7,177.45 232.2,589.27 208.9,840.55 -18,193.41 -176.5,319.84 -370.2,310.41 -294.9,-14.36 -452.9,-374.01 -515.5,-635.02 -38.1,-158.75 -75.9,-424.61 -75.2,-592.4 0.3,-77.51 4.3,-173.88 4.3,-173.88 z m 381,-1.16 c -6,22.41 -19.9,338.55 -17.7,401.48 6.9,191.16 24.9,602.8 179.7,752.4 43.4,42 132.2,55.88 169.2,2.09 34.4,-50.14 32.3,-123.44 27.1,-183.99 -13.3,-155 -53.9,-325.47 -104.4,-451.02 -45.8,-113.81 -116.5,-231.83 -192.2,-415.69 -13.7,-33.31 -59.9,-112.07 -61.7,-105.27 z M 9728.82,4531 c -4.15,18.06 9.6,301.59 17.77,366.7 16.82,133.87 33.97,278.07 50.14,357.19 7.55,36.98 72.27,317.35 144.13,392.71 36.48,38.26 76.54,41.38 100.24,8.36 36.8,-51.13 39.4,-126.16 35.5,-193.01 -3,-52.38 -30.1,-227.24 -43.8,-283.25 -12.9,-52.41 -90.55,-276.43 -108.65,-313.33 -29.61,-60.37 -58.69,-100.47 -119.07,-223.51 -15.58,-31.75 -74.74,-118.51 -76.26,-111.86 z m 2482.68,-65.7 c -29.7,84.44 100.3,269.97 154.5,321.69 51.4,49.01 130,93.17 203.4,79.38 31.2,-5.86 30.1,-53.41 22.2,-96.17 -26.3,-143.82 -186.5,-261.71 -350.1,-304.9 -12.8,-3.4 -28.3,-5.01 -30,0 z m -4863.45,976.44 c 0,0 6.32,-337.54 21.41,-571.2 14.4,-222.75 80.84,-757.7 154.58,-998.47 20.8,-67.91 56.41,-188.55 125.34,-139.96 97.18,68.51 122.55,417.43 127.41,474.18 20.83,243.01 24.4,494.62 14.63,739.45 -7.94,198.76 -25.07,488.8 -25.07,488.8 0,0 173.95,13.25 284.09,35.51 44.99,9.09 231.21,62.88 265.86,122.85 19.63,33.98 -6.61,44.67 -52.8,56.79 -157.49,41.31 -523.98,43.54 -607.44,43.87 -190.96,0.75 -410.33,-1.99 -583.21,-43.87 -45.58,-11.04 -126.25,-38.14 -94,-85.64 24.15,-35.57 113.97,-78.08 139.95,-85.65 65.22,-18.99 229.25,-36.66 229.25,-36.66" /></g></g></svg>